<svg width="49" height="21" fill="none" xmlns="http://www.w3.org/2000/svg"><path d="M24.267.413l-2.382 4.514-2.305 4.514c1.652 3.17 3.112 5.916 4.745 9.028l4.744-9.028-2.44-4.514L24.268.413zM48.438 15.8l-.23-.135-.231-.154-.25-.134-.23-.154-.25-.135-.23-.134-.231-.135-.25-.134-.25-.134-.23-.116-.25-.134-.25-.135-.23-.134-.25-.115-.25-.135-.25-.115-.249-.115-.25-.115-.25-.135-.134-.058-2.209 4.822.096.038.23.096.212.115.23.116.212.096.211.115.23.115.212.115.211.096.212.116.23.134.211.116.212.115.211.115.211.115.212.135.211.115.211.115.212.135.21.134.193.115 2.766-4.514-.192-.115zm-10.319-4.707l-.269-.077-.269-.077-.269-.096-.269-.077-.269-.057-.288-.077-.269-.077-.268-.077-.27-.057-.288-.077-.268-.077-.27-.058-.288-.057-.268-.058-.289-.077-.269-.057-.288-.039-.269-.057-.153-.039-.96 5.206.115.019.25.057.249.039.23.058.25.057.25.058.25.057.23.058.25.039.25.076.23.058.25.058.25.076.23.058.23.058.25.077.23.076.25.058.23.077.25.077.097.038 1.594-5.052-.096-.019-.269-.096zM15.504 9.806l-.288.058-.288.057-.27.039-.287.057-.27.077-.287.058-.27.058-.287.057-.27.077-.268.077-.27.057-.287.077-.27.077-.268.077-.269.058-.269.076-.269.096-.288.077-.25.077-.115.039 1.594 5.051.077-.038.25-.077.23-.058.23-.076.25-.077.25-.058.23-.057.25-.077.231-.058.25-.058.23-.076.25-.039.25-.057.25-.058.23-.058.25-.057.25-.058.249-.038.25-.058.23-.038.135-.02-.96-5.205-.116.02zM4.84 13.187l-.25.115-.249.134-.25.116-.25.115-.249.115-.25.134-.25.116-.25.134-.23.135-.25.134-.25.115-.23.135-.25.134-.23.135-.25.134-.23.135-.25.153-.23.135-.23.154L0 15.78l2.785 4.514.173-.116.211-.134.192-.115.212-.115.211-.135.211-.115.23-.115.212-.116.211-.115.212-.134.211-.116.211-.096.23-.115.212-.115.211-.115.23-.097.212-.115.23-.115.212-.096.23-.096.116-.058-2.21-4.802-.114.039z" fill="#fff"/></svg>