<svg width="15" height="16" fill="none" xmlns="http://www.w3.org/2000/svg"><path d="M1.667 16H0v-.842c.004-3.254 2.613-5.891 5.833-5.895h3.334c3.22.004 5.83 2.64 5.833 5.895V16h-1.667v-.842c-.002-2.324-1.866-4.208-4.166-4.21H5.833c-2.3.002-4.164 1.886-4.166 4.21V16zM7.5 8.421c-2.301 0-4.167-1.885-4.167-4.21C3.333 1.885 5.2 0 7.5 0c2.301 0 4.167 1.885 4.167 4.21C11.664 6.536 9.8 8.419 7.5 8.422zm0-6.737C6.12 1.684 5 2.815 5 4.211c0 1.395 1.12 2.526 2.5 2.526S10 5.606 10 4.21c0-1.396-1.12-2.527-2.5-2.527z" fill="#79655E"/></svg>