<svg width="22" height="21" viewBox="0 0 22 21" fill="none" xmlns="http://www.w3.org/2000/svg">
<path fill-rule="evenodd" clip-rule="evenodd" d="M9.84858 2C5.51393 2 2 5.51393 2 9.84858C2 14.1832 5.51393 17.6972 9.84858 17.6972C14.1832 17.6972 17.6972 14.1832 17.6972 9.84858C17.6972 5.51393 14.1832 2 9.84858 2ZM0 9.84858C0 4.40936 4.40936 0 9.84858 0C15.2878 0 19.6972 4.40936 19.6972 9.84858C19.6972 15.2878 15.2878 19.6972 9.84858 19.6972C4.40936 19.6972 0 15.2878 0 9.84858Z" fill="white"/>
<path fill-rule="evenodd" clip-rule="evenodd" d="M15.949 15.2674C16.3395 14.8769 16.9727 14.8769 17.3632 15.2674L20.8346 18.7387C21.2251 19.1293 21.2251 19.7624 20.8346 20.153C20.4441 20.5435 19.8109 20.5435 19.4204 20.153L15.949 16.6816C15.5585 16.2911 15.5585 15.6579 15.949 15.2674Z" fill="white"/>
</svg>
