<svg  xmlns="http://www.w3.org/2000/svg" xmlns:xlink="http://www.w3.org/1999/xlink">
     <symbol id="btn_dec" viewBox="0 0 49 21">
        <path d="M24.8927 0L22.5109 4.514L20.2059 9.028C21.8578 12.1974 23.3177 14.9442 24.9504 18.056L29.6949 9.028L27.2554 4.514L24.8927 0Z" fill="white"/>
        <path d="M48.8079 15.386L48.5774 15.2516L48.3469 15.0979L48.0972 14.9634L47.8667 14.8098L47.617 14.6753L47.3865 14.5409L47.156 14.4064L46.9062 14.2719L46.6565 14.1375L46.426 14.0222L46.1763 13.8878L45.9266 13.7533L45.6961 13.6188L45.4464 13.5036L45.1967 13.3691L44.947 13.2539L44.6973 13.1386L44.4476 13.0234L44.1978 12.8889L44.0634 12.8313L41.8544 17.6526L41.9504 17.6911L42.1809 17.7871L42.3922 17.9023L42.6227 18.0176L42.834 18.1136L43.0453 18.2289L43.2758 18.3441L43.4871 18.4594L43.6984 18.5554L43.9097 18.6707L44.1402 18.8051L44.3515 18.9204L44.5628 19.0357L44.7741 19.1509L44.9854 19.2662L45.1967 19.4006L45.408 19.5159L45.6193 19.6311L45.8306 19.7656L46.0419 19.9L46.2339 20.0153L49 15.5013L48.8079 15.386Z" fill="white"/>
        <path d="M38.4745 10.6799L38.2056 10.603L37.9367 10.5262L37.6678 10.4302L37.3989 10.3533L37.1299 10.2957L36.8418 10.2189L36.5729 10.142L36.304 10.0652L36.0351 10.0076L35.7469 9.93074L35.478 9.85391L35.2091 9.79628L34.921 9.73865L34.652 9.68103L34.3639 9.60419L34.095 9.54657L33.8069 9.50815L33.538 9.45053L33.3843 9.41211L32.4239 14.6176L32.5391 14.6368L32.7888 14.6945L33.0385 14.7329L33.269 14.7905L33.5187 14.8481L33.7685 14.9057L34.0182 14.9634L34.2487 15.021L34.4984 15.0594L34.7481 15.1362L34.9786 15.1939L35.2283 15.2515L35.478 15.3283L35.7085 15.386L35.939 15.4436L36.1887 15.5204L36.4192 15.5973L36.6689 15.6549L36.8994 15.7317L37.1492 15.8085L37.2452 15.847L38.8395 10.7951L38.7435 10.7759L38.4745 10.6799Z" fill="white"/>
        <path d="M16.5375 9.39299L16.2494 9.45061L15.9613 9.50824L15.6924 9.54666L15.4042 9.60428L15.1353 9.68112L14.8472 9.73874L14.5783 9.79637L14.2901 9.85399L14.0212 9.93083L13.7523 10.0077L13.4834 10.0653L13.1953 10.1421L12.9263 10.219L12.6574 10.2958L12.3885 10.3534L12.1196 10.4302L11.8507 10.5263L11.5625 10.6031L11.3128 10.68L11.1976 10.7184L12.7919 15.7702L12.8687 15.7318L13.1184 15.655L13.3489 15.5973L13.5794 15.5205L13.8291 15.4437L14.0788 15.386L14.3094 15.3284L14.5591 15.2516L14.7896 15.194L15.0393 15.1363L15.2698 15.0595L15.5195 15.0211L15.7692 14.9635L16.0189 14.9058L16.2494 14.8482L16.4991 14.7906L16.7488 14.733L16.9985 14.6945L17.2483 14.6369L17.4788 14.5985L17.6132 14.5793L16.6528 9.37378L16.5375 9.39299Z" fill="white"/>
        <path d="M5.83859 12.7735L5.58888 12.8888L5.33917 13.0232L5.08946 13.1385L4.83975 13.2537L4.59004 13.369L4.34033 13.5034L4.09062 13.6187L3.84091 13.7532L3.61041 13.8876L3.36069 14.0221L3.11098 14.1373L2.88048 14.2718L2.63077 14.4062L2.40027 14.5407L2.15056 14.6752L1.92006 14.8096L1.67035 14.9633L1.43984 15.0978L1.20934 15.2514L0.998047 15.3667L3.78328 19.8807L3.95616 19.7654L4.16745 19.631L4.35954 19.5157L4.57083 19.4005L4.78213 19.266L4.99342 19.1508L5.22392 19.0355L5.43521 18.9203L5.64651 18.805L5.8578 18.6705L6.0691 18.5553L6.28039 18.4592L6.51089 18.344L6.72219 18.2287L6.93348 18.1135L7.16398 18.0174L7.37527 17.9022L7.60578 17.7869L7.81707 17.6909L8.04757 17.5949L8.16282 17.5372L5.95384 12.7351L5.83859 12.7735Z" fill="white"/>
     </symbol>
     <symbol id="tabs_info"  viewBox="0 0 52 47" fill="transparent">
        <path d="M17.1875 42.0625V10.3125H34.8125V19.3125" stroke="#79655E" stroke-width="2" stroke-miterlimit="10" stroke-linecap="round" stroke-linejoin="round"/>
        <path d="M34.8125 38.4375V42.0625" stroke="#79655E" stroke-width="2" stroke-miterlimit="10" stroke-linecap="round" stroke-linejoin="round"/>
        <path d="M21.5625 14.8125H30.75" stroke="#79655E" stroke-width="2" stroke-miterlimit="10" stroke-linecap="round" stroke-linejoin="round" stroke-dasharray="0.53 0.53"/>
        <path d="M21.5625 18.125H30.75" stroke="#79655E" stroke-width="2" stroke-miterlimit="10" stroke-linecap="round" stroke-linejoin="round" stroke-dasharray="0.53 0.53"/>
        <path d="M21.5625 21.4375H30.75" stroke="#79655E" stroke-width="2" stroke-miterlimit="10" stroke-linecap="round" stroke-linejoin="round" stroke-dasharray="0.53 0.53"/>
        <path d="M21.5625 24.6875H30.75" stroke="#79655E" stroke-width="2" stroke-miterlimit="10" stroke-linecap="round" stroke-linejoin="round" stroke-dasharray="0.53 0.53"/>
        <path d="M21.5625 28H30.75" stroke="#79655E" stroke-width="2" stroke-miterlimit="10" stroke-linecap="round" stroke-linejoin="round" stroke-dasharray="0.53 0.53"/>
        <path d="M21.5625 31.3125H30.75" stroke="#79655E" stroke-width="2" stroke-miterlimit="10" stroke-linecap="round" stroke-linejoin="round" stroke-dasharray="0.53 0.53"/>
        <path d="M28.1875 42.0625V35.3125H23.8125V42.0625" stroke="#79655E" stroke-width="2" stroke-miterlimit="10" stroke-linecap="round" stroke-linejoin="round"/>
        <path d="M17.1875 21.4375H5.375V42.0625" stroke="#79655E" stroke-width="2" stroke-miterlimit="10" stroke-linecap="round" stroke-linejoin="round"/>
        <path d="M13.625 24.6875H8.9375" stroke="#79655E" stroke-width="2" stroke-miterlimit="10" stroke-linecap="round" stroke-linejoin="round" stroke-dasharray="0.53 0.53"/>
        <path d="M13.625 28H8.9375" stroke="#79655E" stroke-width="2" stroke-miterlimit="10" stroke-linecap="round" stroke-linejoin="round" stroke-dasharray="0.53 0.53"/>
        <path d="M13.625 31.3125H8.9375" stroke="#79655E" stroke-width="2" stroke-miterlimit="10" stroke-linecap="round" stroke-linejoin="round" stroke-dasharray="0.53 0.53"/>
        <path d="M13.625 34.5625H8.9375" stroke="#79655E" stroke-width="2" stroke-miterlimit="10" stroke-linecap="round" stroke-linejoin="round" stroke-dasharray="0.53 0.53"/>
        <path d="M13.625 37.875H8.9375" stroke="#79655E" stroke-width="2" stroke-miterlimit="10" stroke-linecap="round" stroke-linejoin="round" stroke-dasharray="0.53 0.53"/>
        <path d="M1 42.0625H51" stroke="#79655E" stroke-width="2" stroke-miterlimit="10" stroke-linecap="round" stroke-linejoin="round"/>
        <path d="M24.375 45.875H45.6875" stroke="#79655E" stroke-width="2" stroke-miterlimit="10" stroke-linecap="round" stroke-linejoin="round"/>
        <path d="M5.0625 45.875H12" stroke="#79655E" stroke-width="2" stroke-miterlimit="10" stroke-linecap="round" stroke-linejoin="round"/>
        <path d="M16.125 45.875H19.375H20.875" stroke="#79655E" stroke-width="2" stroke-miterlimit="10" stroke-linecap="round" stroke-linejoin="round" stroke-dasharray="0.6 0.6"/>
        <path d="M20.875 10.3125V7.25H30.75V10.3125" stroke="#79655E" stroke-width="2" stroke-miterlimit="10" stroke-linecap="round" stroke-linejoin="round"/>
        <path d="M25.8125 7.25V1.5" stroke="#79655E" stroke-width="2" stroke-miterlimit="10" stroke-linecap="round" stroke-linejoin="round"/>
        <path d="M35.0625 27.0529L40.351 32.4375L48.8125 23.6875" stroke="#79655E" stroke-width="2" stroke-miterlimit="10" stroke-linecap="round" stroke-linejoin="round"/>
     </symbol>
     <symbol id="tabs_plan" viewBox="0 0 67 56" fill="transparent">
         <path d="M30.0801 29.3773C28.7851 30.4652 27.3605 31.6618 26.8425 32.0969C26.1152 32.73 24.6814 33.7578 23.5997 33.4956C23.0144 33.3247 23.8463 33.9733 14.7322 30.2757C14.7322 30.2757 17.143 28.2285 17.7388 28.2803C18.3345 28.3321 22.2974 28.3165 22.2974 28.3165L32.0299 20.2072C35.0085 17.7052 39.2314 17.184 40.2105 18.3495C41.1004 19.4353 39.2149 21.7923 36.544 24.3452L34.2907 32.3124L31.7006 34.4881L30.0801 29.3773Z" stroke="#79655E" stroke-width="2" stroke-miterlimit="10" stroke-linecap="round" stroke-linejoin="round"/>
         <path d="M26.1838 24.765L23.8527 23.9621L26.0543 22.1127L29.6007 21.9169" stroke="#79655E" stroke-width="2" stroke-miterlimit="10" stroke-linecap="round" stroke-linejoin="round"/>
         <path d="M65.67 22.6514C66.3786 24.4417 65.5073 26.4547 63.7171 27.1634L18.1147 45.2149C16.3244 45.9236 14.3114 45.0523 13.6027 43.262L7.12623 26.9009C6.41756 25.1106 7.28885 23.0976 9.07912 22.3889L54.7312 4.31771C56.5215 3.60903 58.5345 4.48032 59.2432 6.2706L65.7197 22.6317L65.67 22.6514Z" stroke="#79655E" stroke-width="2" stroke-miterlimit="10" stroke-linecap="round" stroke-linejoin="round"/>
         <path d="M53.3484 16.0822L54.6901 13.0777L57.7413 20.7858" stroke="#79655E" stroke-width="2" stroke-miterlimit="10" stroke-linecap="round" stroke-linejoin="round"/>
         <path d="M44.438 8.68066L44.9695 10.0234" stroke="#79655E" stroke-width="2" stroke-miterlimit="10" stroke-linecap="round" stroke-linejoin="round"/>
         <path d="M46.5234 13.9526L47.0353 15.2456" stroke="#79655E" stroke-width="2" stroke-miterlimit="10" stroke-linecap="round" stroke-linejoin="round"/>
         <path d="M48.5908 19.1738L49.1223 20.5165" stroke="#79655E" stroke-width="2" stroke-miterlimit="10" stroke-linecap="round" stroke-linejoin="round"/>
         <path d="M50.6572 24.395L51.1887 25.7377" stroke="#79655E" stroke-width="2" stroke-miterlimit="10" stroke-linecap="round" stroke-linejoin="round"/>
         <path d="M52.7432 29.667L53.2747 31.0097" stroke="#79655E" stroke-width="2" stroke-miterlimit="10" stroke-linecap="round" stroke-linejoin="round"/>
         <path d="M22.3575 17.1329L41.7386 2.15567C43.2325 0.989064 45.4165 1.27499 46.5831 2.76895L49.3214 6.34431" stroke="#79655E" stroke-width="2" stroke-miterlimit="10" stroke-linecap="round" stroke-linejoin="round"/>
         <path d="M34.5261 38.7194L17.9236 51.5614C16.4296 52.728 14.2457 52.4421 13.0791 50.9481L2.31336 36.9751C1.14676 35.4811 1.43268 33.2972 2.92664 32.1306L7.6375 28.4826" stroke="#79655E" stroke-width="2" stroke-miterlimit="10" stroke-linecap="round" stroke-linejoin="round"/>
     </symbol>
     <symbol id="tabs_location" viewBox="0 0 52 42" fill="transparent">
        <path d="M7.61988 6.67326C9.7262 5.41812 12.1836 4.66504 14.7914 4.66504C22.4143 4.66504 28.5327 10.8403 28.5327 18.4213C28.5327 24.5464 24.4203 30.4205 20.9098 35.0394C20.2077 35.9933 19.5557 36.9472 18.8536 37.7505C16.9479 40.0599 15.8446 40.8632 14.7413 40.8632C13.6379 40.8632 12.5346 40.0599 10.6289 37.7505C9.97696 36.9472 9.325 35.9933 8.57274 35.0394C5.11235 30.4205 1 24.5464 1 18.4715C1 14.6559 2.55467 11.242 5.01205 8.73168" stroke="#79655E" stroke-width="2" stroke-miterlimit="10" stroke-linecap="round" stroke-linejoin="round"/>
        <path d="M20.7093 18.4712C20.7093 21.7848 18.0513 24.4457 14.7414 24.4457C11.4314 24.4457 8.77344 21.7848 8.77344 18.4712C8.77344 15.1577 11.4314 12.4968 14.7414 12.4968C18.0513 12.4466 20.7093 15.1577 20.7093 18.4712Z" stroke="#79655E" stroke-width="2" stroke-miterlimit="10" stroke-linecap="round" stroke-linejoin="round"/>
        <path d="M43.7788 1C47.7909 1 51.0005 4.26336 51.0005 8.22959C51.0005 11.4427 48.844 14.5053 46.9884 16.9653C46.5872 17.4674 46.2863 17.9695 45.9353 18.3711C44.9323 19.576 44.3305 19.9777 43.7788 19.9777C43.2272 19.9777 42.6253 19.576 41.6223 18.3711C41.2713 17.9695 40.9202 17.4674 40.5692 16.9653C38.7136 14.5053 36.5571 11.4427 36.5571 8.22959C36.5571 4.26336 39.8169 1 43.7788 1Z" stroke="#79655E" stroke-width="2" stroke-miterlimit="10" stroke-linecap="round" stroke-linejoin="round"/>
        <path d="M46.9381 8.22935C46.9381 9.98654 45.5339 11.3923 43.7786 11.3923C42.0234 11.3923 40.6191 9.98654 40.6191 8.22935C40.6191 6.47216 42.0234 5.06641 43.7786 5.06641C45.5339 5.11661 46.9381 6.52236 46.9381 8.22935Z" stroke="#79655E" stroke-width="2" stroke-miterlimit="10" stroke-linecap="round" stroke-linejoin="round"/>
        <path d="M39.1654 20.3789C39.1654 20.3789 38.6639 20.3789 37.9116 20.3789" stroke="#79655E" stroke-width="2" stroke-linecap="round" stroke-linejoin="round"/>
        <path d="M35.4038 20.6797C33.5482 21.0311 31.6926 21.8846 31.6926 23.6418C31.6926 27.9093 48.8441 26.6039 48.9946 32.2772C49.0447 35.6409 45.8853 39.1553 17.8511 40.6615" stroke="#79655E" stroke-width="2" stroke-linecap="round" stroke-linejoin="round" stroke-dasharray="5.05 5.05"/>
        <path d="M16.597 40.7627C16.1958 40.7627 15.7445 40.8129 15.3433 40.8129" stroke="#79655E" stroke-width="2" stroke-linecap="round" stroke-linejoin="round"/>
     </symbol>
     <symbol id="tabs_tips" viewBox="0 0 52 52" fill="transparent">
        <path d="M11.8125 42.1249H3.93749C2.3125 42.1249 1 40.8124 1 39.1874V14" stroke="#79655E" stroke-width="2" stroke-miterlimit="10" stroke-linecap="round" stroke-linejoin="round"/>
        <path d="M51 14V39.1874C51 40.8124 49.6875 42.1249 48.0625 42.1249H40.1875" stroke="#79655E" stroke-width="2" stroke-miterlimit="10" stroke-linecap="round" stroke-linejoin="round"/>
        <path d="M9.24998 19.5H5.18749C2.875 19.5 1 17.625 1 15.3125V13.375C1 10.875 3.0625 8.8125 5.56249 8.8125H13.5625H39.1874H46.3749C48.8749 8.8125 50.9374 10.875 50.9374 13.375V15.3125C50.9374 17.625 49.0624 19.5 46.7499 19.5H42.9374" stroke="#79655E" stroke-width="2" stroke-miterlimit="10" stroke-linecap="round" stroke-linejoin="round"/>
        <path d="M38.9994 19.5H13.2495" stroke="#79655E" stroke-width="2" stroke-miterlimit="10" stroke-linecap="round" stroke-linejoin="round"/>
        <path d="M11.25 23.25C10.125 23.25 9.25 22.375 9.25 21.25V17.6875C9.25 17.0625 9.75 16.5625 10.375 16.5625H12.1875C12.8125 16.5625 13.3125 17.0625 13.3125 17.6875V21.25C13.25 22.3125 12.375 23.25 11.25 23.25Z" stroke="#79655E" stroke-width="2" stroke-miterlimit="10" stroke-linecap="round" stroke-linejoin="round"/>
        <path d="M41 23.25C39.875 23.25 39 22.375 39 21.25V17.6875C39 17.0625 39.5 16.5625 40.125 16.5625H41.9375C42.5625 16.5625 43.0625 17.0625 43.0625 17.6875V21.25C43 22.3125 42.125 23.25 41 23.25Z" stroke="#79655E" stroke-width="2" stroke-miterlimit="10" stroke-linecap="round" stroke-linejoin="round"/>
        <path d="M31.625 8.81249V5.9375C31.625 5.3125 31.125 4.75 30.4375 4.75H22.4375C21.8125 4.75 21.25 5.25 21.25 5.9375V8.81249" stroke="#79655E" stroke-width="2" stroke-miterlimit="10" stroke-linecap="round" stroke-linejoin="round"/>
        <path d="M18 8.81248V5.93749C18 3.5 20 1.5 22.4375 1.5H30.4375C32.875 1.5 34.875 3.5 34.875 5.93749V8.81248" stroke="#79655E" stroke-width="2" stroke-miterlimit="10" stroke-linecap="round" stroke-linejoin="round"/>
        <path d="M24.9375 42.875C24.25 42.875 23.6875 42.3125 23.6875 41.625V39.25H21.3125C20.625 39.25 20.0625 38.6875 20.0625 38V35.875C20.0625 35.1875 20.625 34.625 21.3125 34.625H23.6875V32.25C23.6875 31.5625 24.25 31 24.9375 31H27.0625C27.75 31 28.3125 31.5625 28.3125 32.25V34.625H30.6875C31.375 34.625 31.9375 35.1875 31.9375 35.875V38C31.9375 38.6875 31.375 39.25 30.6875 39.25H28.3125V41.625C28.3125 42.3125 27.75 42.875 27.0625 42.875H24.9375Z" stroke="#79655E" stroke-width="2" stroke-miterlimit="10" stroke-linecap="round" stroke-linejoin="round"/>
        <path d="M26 22.75C26 22.75 20 27.375 15.0625 27.375V39.125C15.0625 41.5625 16.0625 43.7499 17.75 44.9999C19.5 46.3124 24.6875 49.7499 24.9375 49.8749L26.0625 50.6249L27.1875 49.8749C27.4375 49.7499 32.625 46.3124 34.375 44.9999C36.0624 43.7499 37.0624 41.5625 37.0624 39.125V27.4375C32 27.4375 26 22.75 26 22.75Z" stroke="#79655E" stroke-width="2" stroke-miterlimit="10" stroke-linecap="round" stroke-linejoin="round"/>
     </symbol>
     <symbol id="tabs_gal" viewBox="0 0 52 53" fill="transparent">
        <path d="M26 51.5C39.8071 51.5 51 40.3071 51 26.5C51 12.6929 39.8071 1.5 26 1.5C12.1929 1.5 1 12.6929 1 26.5C1 40.3071 12.1929 51.5 26 51.5Z" stroke="#79655E" stroke-width="2" stroke-miterlimit="10" stroke-linecap="round" stroke-linejoin="round"/>
        <path d="M34.6875 7.0625C38.125 11.625 40.3125 18.6875 40.3125 26.5C40.3125 34.5 38 41.6875 34.4375 46.25" stroke="#79655E" stroke-width="2" stroke-miterlimit="10" stroke-linecap="round" stroke-linejoin="round"/>
        <path d="M17.5 46.25C13.9375 41.6875 11.625 34.5625 11.625 26.5C11.625 18.625 13.8125 11.625 17.25 7.0625" stroke="#79655E" stroke-width="2" stroke-miterlimit="10" stroke-linecap="round" stroke-linejoin="round"/>
        <path d="M26 39V48.25" stroke="#79655E" stroke-width="2" stroke-miterlimit="10" stroke-linecap="round" stroke-linejoin="round"/>
        <path d="M26 4.75V14" stroke="#79655E" stroke-width="2" stroke-miterlimit="10" stroke-linecap="round" stroke-linejoin="round"/>
        <path d="M36.625 26.5H47.75" stroke="#79655E" stroke-width="2" stroke-miterlimit="10" stroke-linecap="round" stroke-linejoin="round"/>
        <path d="M4.25 26.5H15.375" stroke="#79655E" stroke-width="2" stroke-miterlimit="10" stroke-linecap="round" stroke-linejoin="round"/>
        <path d="M9.625 12.125H42.375" stroke="#79655E" stroke-width="2" stroke-miterlimit="10" stroke-linecap="round" stroke-linejoin="round"/>
        <path d="M9.625 40.875H42.375" stroke="#79655E" stroke-width="2" stroke-miterlimit="10" stroke-linecap="round" stroke-linejoin="round"/>
        <path d="M27.7695 30.8614L27.7695 30.8614L27.7679 30.8644L25.9964 34.1078L24.2106 30.8644L24.209 30.8614L21.8275 26.501L26.0007 18.891C26.2459 19.3373 26.4834 19.7695 26.7166 20.1937C27.8521 22.2594 28.8822 24.1334 30.1722 26.4977L27.7695 30.8614Z" stroke="#79655E" stroke-width="2"/>
     </symbol>
     <symbol id="tabs_reviews" viewBox="0 0 52 68" fill="transparent">
        <path d="M7.06787 40.8203C7.06787 45.9174 7.06787 50.3672 7.06787 50.3672V63.3122V66.2248" stroke="#79655E" stroke-width="2" stroke-miterlimit="10" stroke-linecap="round" stroke-linejoin="round"/>
        <path d="M7.06796 50.0437C7.06796 51.8236 5.69256 53.2799 3.91262 53.2799C2.13269 53.2799 1 51.8236 1 50.0437V41.4676C1 36.2896 5.20712 32.0825 10.3851 32.0825H16.6149" stroke="#79655E" stroke-width="2" stroke-miterlimit="10" stroke-linecap="round" stroke-linejoin="round"/>
        <path d="M13.9448 66.2246V53.1987" stroke="#79655E" stroke-width="2" stroke-miterlimit="10" stroke-linecap="round" stroke-linejoin="round"/>
        <path d="M39.9157 14.2026C42.8283 15.0117 45.0128 17.6816 45.0128 20.9178C45.0128 24.7204 41.9384 27.8758 38.0549 27.8758C36.194 27.8758 34.5759 27.1476 33.3623 26.0149" stroke="#79655E" stroke-width="2" stroke-miterlimit="10" stroke-linecap="round" stroke-linejoin="round"/>
        <path d="M44.9322 50.0437C44.9322 51.8236 46.3076 53.2799 48.0875 53.2799C49.8675 53.2799 51.0001 51.8236 51.0001 50.0437V41.4676C51.0001 36.2896 46.793 32.0825 41.615 32.0825H35.3853" stroke="#79655E" stroke-width="2" stroke-miterlimit="10" stroke-linecap="round" stroke-linejoin="round"/>
        <path d="M44.9322 40.8203C44.9322 45.9174 44.9322 48.5064 44.9322 48.5064V50.61C44.9322 56.0307 50.1102 66.1439 50.1102 66.1439H35.1426" stroke="#79655E" stroke-width="2" stroke-miterlimit="10" stroke-linecap="round" stroke-linejoin="round"/>
        <path d="M26.4855 40.5774C23.5728 40.5774 21.2266 38.2311 21.2266 35.3185C21.2266 32.4058 23.5728 30.0596 26.4855 30.0596C29.3981 30.0596 31.7444 32.4058 31.7444 35.3185C31.6635 38.2311 29.3172 40.5774 26.4855 40.5774Z" stroke="#79655E" stroke-width="2" stroke-miterlimit="10" stroke-linecap="round" stroke-linejoin="round"/>
        <path d="M30.8545 66.2247V64.3638V56.1114V50.0435" stroke="#79655E" stroke-width="2" stroke-miterlimit="10" stroke-linecap="round" stroke-linejoin="round"/>
        <path d="M22.0356 50.0435C22.0356 53.3606 22.0356 56.1114 22.0356 56.1114V64.3638V66.2247" stroke="#79655E" stroke-width="2" stroke-miterlimit="10" stroke-linecap="round" stroke-linejoin="round"/>
        <path d="M22.0358 55.8692C22.0358 57.0019 21.1459 57.8918 20.0132 57.8918C18.8805 57.8918 18.1523 57.0019 18.1523 55.8692V50.4485C18.1523 47.1313 20.8222 44.4614 24.1394 44.4614H28.6701C31.9873 44.4614 34.6572 47.1313 34.6572 50.4485V55.8692C34.6572 57.0019 33.929 57.8918 32.7964 57.8918C31.6637 57.8918 30.7737 57.0019 30.7737 55.8692" stroke="#79655E" stroke-width="2" stroke-miterlimit="10" stroke-linecap="round" stroke-linejoin="round"/>
        <path d="M26.4854 66.2249V57.8916" stroke="#79655E" stroke-width="2" stroke-miterlimit="10" stroke-linecap="round" stroke-linejoin="round"/>
        <path d="M21.8735 12.9888L25.1907 16.3869L30.6923 10.8853" stroke="#79655E" stroke-width="2" stroke-miterlimit="10" stroke-linecap="round" stroke-linejoin="round"/>
        <path d="M25.9996 1.5C25.9996 1.5 20.8216 5.54531 16.4526 5.54531V15.7395C16.4526 17.843 17.3426 19.7848 18.7989 20.8366C20.3361 21.9693 24.8669 24.9628 25.0287 25.0437L25.9996 25.6909L26.9704 25.0437C27.1322 24.8819 31.663 21.9693 33.2002 20.8366C34.6565 19.7848 35.5465 17.843 35.5465 15.7395V5.54531C31.1776 5.54531 25.9996 1.5 25.9996 1.5Z" stroke="#79655E" stroke-width="2" stroke-miterlimit="10" stroke-linecap="round" stroke-linejoin="round"/>
        <path d="M12.0844 14.2026C9.17177 15.0117 6.9873 17.6816 6.9873 20.9178C6.9873 24.7204 10.0617 27.8758 13.9452 27.8758C15.8061 27.8758 17.4242 27.1476 18.7187 26.0149" stroke="#79655E" stroke-width="2" stroke-miterlimit="10" stroke-linecap="round" stroke-linejoin="round"/>
     </symbol>
     <symbol id="tabs_policy" viewBox="0 0 52 44" fill="transparent">
        <path d="M4.875 12.5625C5.5 6.37499 10.75 1.5 17.125 1.5C21.6875 1.5 25.8124 4.06249 27.9374 7.93748C30.0624 4.06249 34.1249 1.5 38.6874 1.5C45.4374 1.5 50.9999 6.99999 50.9999 13.8125C50.9999 27.8749 29.4374 41.1249 28.4999 41.6874L27.9374 42.0624L27.3749 41.6874C27.0624 41.4999 24.625 39.9999 21.4375 37.5624" stroke="#79655E" stroke-width="2" stroke-miterlimit="10" stroke-linecap="round" stroke-linejoin="round"/>
        <path d="M38.6875 9.0625C41.3125 9.0625 43.4375 11.1875 43.4375 13.8125" stroke="#79655E" stroke-width="2" stroke-miterlimit="10" stroke-linecap="round" stroke-linejoin="round"/>
        <path d="M7.0625 25.5L10.875 29.3125L17.0625 23.0625" stroke="#79655E" stroke-width="2" stroke-miterlimit="10" stroke-linecap="round" stroke-linejoin="round"/>
        <path d="M11.75 12.5C11.75 12.5 5.87499 17.0625 1 17.0625V28.5625C1 30.9375 2 33.1249 3.62499 34.3124C5.31249 35.5624 10.4375 38.9374 10.6875 39.0624L11.75 39.7499L12.8125 39.0624C13 38.9374 18.125 35.5624 19.875 34.3124C21.4999 33.1249 22.4999 30.9375 22.4999 28.5625V17C17.5625 17 11.75 12.5 11.75 12.5Z" stroke="#79655E" stroke-width="2" stroke-miterlimit="10" stroke-linecap="round" stroke-linejoin="round"/>
     </symbol>
</svg>