<svg width="16" height="16" fill="none" xmlns="http://www.w3.org/2000/svg"><path d="M8.8 16H7.2v-2.4h1.6V16zm4.291-1.778l-1.697-1.696 1.132-1.132 1.697 1.698-1.13 1.13h-.002zm-10.182 0l-1.132-1.13 1.696-1.698 1.132 1.13-1.696 1.698zM8 12.006a4.006 4.006 0 11.003-8.012A4.006 4.006 0 018 12.006zm0-6.412a2.406 2.406 0 10.003 4.812A2.406 2.406 0 008 5.594zM16 8.8h-2.4V7.2H16v1.6zm-13.6 0H0V7.2h2.4v1.6zm10.125-4.194l-1.13-1.132 1.696-1.697 1.132 1.132-1.697 1.697h-.001zm-9.05 0L1.777 2.91 2.91 1.778l1.696 1.698-1.13 1.13h-.002zM8.8 2.4H7.2V0h1.6v2.4z" fill="#79655E"/></svg>