<svg width="67" height="56" fill="none" xmlns="http://www.w3.org/2000/svg"><path d="M30.08 29.377l-3.237 2.72c-.728.633-2.162 1.66-3.243 1.399-.586-.171.246.477-8.868-3.22 0 0 2.411-2.047 3.007-1.996.595.052 4.558.037 4.558.037l9.733-8.11c2.978-2.502 7.201-3.023 8.18-1.858.89 1.086-.995 3.443-3.666 5.996l-2.253 7.967-2.59 2.176-1.62-5.11z" stroke="#79655E" stroke-width="2" stroke-miterlimit="10" stroke-linecap="round" stroke-linejoin="round"/><path d="M26.184 24.765l-2.331-.803 2.201-1.85 3.547-.195" stroke="#79655E" stroke-width="2" stroke-miterlimit="10" stroke-linecap="round" stroke-linejoin="round"/><path d="M65.67 22.651a3.47 3.47 0 01-1.953 4.512L18.115 45.215a3.47 3.47 0 01-4.512-1.953L7.126 26.901a3.47 3.47 0 011.953-4.512L54.731 4.318a3.47 3.47 0 014.512 1.953l6.477 16.36-.05.02z" stroke="#79655E" stroke-width="2" stroke-miterlimit="10" stroke-linecap="round" stroke-linejoin="round"/><path d="M53.348 16.082l1.342-3.004 3.051 7.708M44.438 8.68l.531 1.343m1.554 3.93l.512 1.293m1.555 3.928l.532 1.343m1.535 3.878l.532 1.343m1.554 3.929l.532 1.343M22.358 17.133l19.38-14.977c1.495-1.167 3.678-.881 4.845.613l2.738 3.575M34.526 38.72L17.924 51.56c-1.494 1.167-3.678.881-4.845-.613L2.313 36.975c-1.166-1.494-.88-3.678.614-4.844l4.71-3.648" stroke="#79655E" stroke-width="2" stroke-miterlimit="10" stroke-linecap="round" stroke-linejoin="round"/></svg>