<svg width="52" height="53" viewBox="0 0 52 53" fill="none" xmlns="http://www.w3.org/2000/svg">
<path d="M26 51.5C39.8071 51.5 51 40.3071 51 26.5C51 12.6929 39.8071 1.5 26 1.5C12.1929 1.5 1 12.6929 1 26.5C1 40.3071 12.1929 51.5 26 51.5Z" stroke="#79655E" stroke-width="2" stroke-miterlimit="10" stroke-linecap="round" stroke-linejoin="round"/>
<path d="M34.6875 7.0625C38.125 11.625 40.3125 18.6875 40.3125 26.5C40.3125 34.5 38 41.6875 34.4375 46.25" stroke="#79655E" stroke-width="2" stroke-miterlimit="10" stroke-linecap="round" stroke-linejoin="round"/>
<path d="M17.5 46.25C13.9375 41.6875 11.625 34.5625 11.625 26.5C11.625 18.625 13.8125 11.625 17.25 7.0625" stroke="#79655E" stroke-width="2" stroke-miterlimit="10" stroke-linecap="round" stroke-linejoin="round"/>
<path d="M26 39V48.25" stroke="#79655E" stroke-width="2" stroke-miterlimit="10" stroke-linecap="round" stroke-linejoin="round"/>
<path d="M26 4.75V14" stroke="#79655E" stroke-width="2" stroke-miterlimit="10" stroke-linecap="round" stroke-linejoin="round"/>
<path d="M36.625 26.5H47.75" stroke="#79655E" stroke-width="2" stroke-miterlimit="10" stroke-linecap="round" stroke-linejoin="round"/>
<path d="M4.25 26.5H15.375" stroke="#79655E" stroke-width="2" stroke-miterlimit="10" stroke-linecap="round" stroke-linejoin="round"/>
<path d="M9.625 12.125H42.375" stroke="#79655E" stroke-width="2" stroke-miterlimit="10" stroke-linecap="round" stroke-linejoin="round"/>
<path d="M9.625 40.875H42.375" stroke="#79655E" stroke-width="2" stroke-miterlimit="10" stroke-linecap="round" stroke-linejoin="round"/>
<path d="M27.7695 30.8614L27.7695 30.8614L27.7679 30.8644L25.9964 34.1078L24.2106 30.8644L24.209 30.8614L21.8275 26.501L26.0007 18.891C26.2459 19.3373 26.4834 19.7695 26.7166 20.1937C27.8521 22.2594 28.8822 24.1334 30.1722 26.4977L27.7695 30.8614Z" stroke="#79655E" stroke-width="2"/>
</svg>
