<svg width="52" height="68" fill="none" xmlns="http://www.w3.org/2000/svg"><path d="M7.068 40.82v25.405m0-16.181c0 1.78-1.375 3.236-3.155 3.236C2.133 53.28 1 51.824 1 50.044v-8.576c0-5.178 4.207-9.386 9.385-9.386h6.23m-2.67 34.143V53.199m25.971-38.996a6.964 6.964 0 015.097 6.715c0 3.802-3.075 6.958-6.958 6.958a6.815 6.815 0 01-4.693-1.861m11.57 24.029c0 1.78 1.376 3.236 3.155 3.236 1.78 0 2.913-1.456 2.913-3.236v-8.576c0-5.178-4.207-9.386-9.385-9.386h-6.23" stroke="#79655E" stroke-width="2" stroke-miterlimit="10" stroke-linecap="round" stroke-linejoin="round"/><path d="M44.932 40.82v9.79c0 5.42 5.178 15.534 5.178 15.534H35.143m-8.658-25.567a5.248 5.248 0 01-5.258-5.258 5.248 5.248 0 015.258-5.26 5.248 5.248 0 015.26 5.26c-.082 2.912-2.428 5.258-5.26 5.258zm4.37 25.648V50.044m-8.819 0v16.18m0-10.354c0 1.132-.89 2.022-2.023 2.022s-1.86-.89-1.86-2.023v-5.42a5.974 5.974 0 015.986-5.988h4.531a5.974 5.974 0 015.987 5.988v5.42c0 1.133-.728 2.023-1.86 2.023a2.003 2.003 0 01-2.023-2.023m-4.289 10.356v-8.333m-4.612-44.903l3.318 3.398 5.501-5.502" stroke="#79655E" stroke-width="2" stroke-miterlimit="10" stroke-linecap="round" stroke-linejoin="round"/><path d="M26 1.5s-5.178 4.045-9.547 4.045V15.74c0 2.104.89 4.046 2.346 5.098 1.537 1.132 6.068 4.126 6.23 4.207l.97.647.971-.647c.162-.162 4.693-3.075 6.23-4.207 1.456-1.052 2.346-2.994 2.346-5.098V5.545C31.178 5.545 26 1.5 26 1.5zM12.084 14.203a6.964 6.964 0 00-5.097 6.715c0 3.802 3.075 6.958 6.958 6.958 1.861 0 3.48-.728 4.774-1.861" stroke="#79655E" stroke-width="2" stroke-miterlimit="10" stroke-linecap="round" stroke-linejoin="round"/></svg>