<svg width="52" height="52" fill="none" xmlns="http://www.w3.org/2000/svg"><path d="M11.813 42.125H3.936A2.934 2.934 0 011 39.187V14m50 0v25.187a2.934 2.934 0 01-2.938 2.938h-7.874" stroke="#79655E" stroke-width="2" stroke-miterlimit="10" stroke-linecap="round" stroke-linejoin="round"/><path d="M9.25 19.5H5.187A4.188 4.188 0 011 15.312v-1.937c0-2.5 2.063-4.563 4.562-4.563h40.813c2.5 0 4.562 2.063 4.562 4.563v1.938A4.188 4.188 0 0146.75 19.5h-3.813M39 19.5H13.25" stroke="#79655E" stroke-width="2" stroke-miterlimit="10" stroke-linecap="round" stroke-linejoin="round"/><path d="M11.25 23.25c-1.125 0-2-.875-2-2v-3.563c0-.625.5-1.125 1.125-1.125h1.813c.624 0 1.124.5 1.124 1.125v3.563c-.062 1.063-.937 2-2.062 2zm29.75 0c-1.125 0-2-.875-2-2v-3.563c0-.625.5-1.125 1.125-1.125h1.813c.624 0 1.124.5 1.124 1.125v3.563c-.062 1.063-.937 2-2.062 2zM31.625 8.812V5.938c0-.625-.5-1.188-1.188-1.188h-8c-.625 0-1.187.5-1.187 1.188v2.874" stroke="#79655E" stroke-width="2" stroke-miterlimit="10" stroke-linecap="round" stroke-linejoin="round"/><path d="M18 8.812V5.937C18 3.5 20 1.5 22.438 1.5h8c2.437 0 4.437 2 4.437 4.437v2.875m-9.937 34.063c-.688 0-1.25-.563-1.25-1.25V39.25h-2.375c-.688 0-1.25-.563-1.25-1.25v-2.125c0-.688.562-1.25 1.25-1.25h2.375V32.25c0-.688.562-1.25 1.25-1.25h2.125c.687 0 1.25.563 1.25 1.25v2.375h2.375c.687 0 1.25.563 1.25 1.25V38c0 .688-.563 1.25-1.25 1.25h-2.375v2.375c0 .688-.563 1.25-1.25 1.25h-2.125z" stroke="#79655E" stroke-width="2" stroke-miterlimit="10" stroke-linecap="round" stroke-linejoin="round"/><path d="M26 22.75s-6 4.625-10.938 4.625v11.75c0 2.438 1 4.625 2.688 5.875 1.75 1.312 6.938 4.75 7.188 4.875l1.125.75 1.125-.75c.25-.125 5.437-3.563 7.187-4.875 1.687-1.25 2.687-3.438 2.687-5.875V27.437C32 27.438 26 22.75 26 22.75z" stroke="#79655E" stroke-width="2" stroke-miterlimit="10" stroke-linecap="round" stroke-linejoin="round"/></svg>