<?xml version="1.0" standalone="no"?>
<!DOCTYPE svg PUBLIC "-//W3C//DTD SVG 20010904//EN"
 "http://www.w3.org/TR/2001/REC-SVG-20010904/DTD/svg10.dtd">
<svg version="1.0" xmlns="http://www.w3.org/2000/svg"
 width="360.000000pt" height="360.000000pt" viewBox="0 0 360.000000 360.000000"
 preserveAspectRatio="xMidYMid meet">
<metadata>
Created by potrace 1.14, written by Peter Selinger 2001-2017
</metadata>
<g transform="translate(0.000000,360.000000) scale(0.100000,-0.100000)"
fill="#000000" stroke="none">
<path d="M328 2634 l-326 -435 191 -178 c956 -887 1601 -1481 1607 -1481 16 0
1791 1652 1788 1664 -2 7 -147 205 -323 440 l-320 426 -1145 0 -1145 0 -327
-436z m1292 288 c0 -10 -578 -587 -583 -582 -11 12 -194 579 -189 584 8 9 772
7 772 -2z m1183 -7 c-3 -14 -225 -579 -230 -585 -5 -5 -593 582 -593 593 0 4
186 6 413 5 268 -2 411 -6 410 -13z m-2003 -316 c52 -159 96 -296 98 -304 3
-13 -40 -15 -327 -15 l-331 0 227 305 c126 167 230 304 233 304 3 0 48 -130
100 -290z m1310 -14 l305 -305 -615 0 -615 0 305 305 c168 168 307 305 310
305 3 0 142 -137 310 -305z m1048 -35 l200 -265 -321 -3 c-176 -1 -322 -1
-324 1 -2 2 42 121 98 263 56 142 105 270 110 283 9 24 10 24 24 5 8 -10 104
-138 213 -284z m-1903 -996 c163 -323 295 -588 293 -589 -2 -2 -1184 1087
-1253 1156 -19 19 -17 19 322 19 l341 0 297 -586z m1225 577 c0 -4 -152 -308
-339 -675 l-339 -667 -60 113 c-44 83 -595 1177 -620 1231 -2 4 303 7 677 7
375 0 681 -4 681 -9z m810 -25 c-19 -18 -165 -154 -325 -301 -159 -148 -339
-314 -400 -371 -350 -325 -510 -472 -512 -470 -1 1 77 157 173 346 97 190 227
449 291 575 64 127 120 236 126 243 7 9 89 12 346 12 l336 0 -35 -34z"/>
</g>
</svg>
