<svg width="16" height="16" fill="none" xmlns="http://www.w3.org/2000/svg"><path d="M4.786 9.18c.44 0 .797-.352.797-.786a.793.793 0 00-.797-.788.793.793 0 00-.798.788c0 .434.357.787.798.787zm3.988-.786a.793.793 0 01-.798.787.793.793 0 01-.797-.787c0-.435.357-.788.797-.788.44 0 .798.353.798.788zm2.393.786c.44 0 .798-.352.798-.786a.792.792 0 00-.798-.788.793.793 0 00-.798.788c0 .434.357.787.798.787zm-5.584 2.363a.792.792 0 01-.797.787.792.792 0 01-.798-.787c0-.435.357-.787.798-.787.44 0 .797.352.797.787zm2.393.787c.44 0 .798-.352.798-.787a.793.793 0 00-.798-.787.793.793 0 00-.797.787c0 .435.357.787.797.787z" fill="#79655E"/><path fill-rule="evenodd" clip-rule="evenodd" d="M4.786 1.308a.793.793 0 00-.798-.787.793.793 0 00-.797.787H1.595C.715 1.308 0 2.013 0 2.883v11.022c0 .87.714 1.574 1.595 1.574h12.762c.882 0 1.596-.705 1.596-1.574V2.883c0-.87-.714-1.575-1.595-1.575h-1.596a.793.793 0 00-.797-.787.792.792 0 00-.798.787H4.786zm-3.19 3.15V2.882h12.761v1.574H1.595zm0 1.574v7.873h8.113l4.649-4.589V6.032H1.595zm12.761 5.51l-2.392 2.363h2.393v-2.362z" fill="#79655E"/></svg>