<svg width="18" height="12" fill="none" xmlns="http://www.w3.org/2000/svg"><path fill-rule="evenodd" clip-rule="evenodd" d="M7.506 9L6 6c.8-1.609 1.417-2.84 2.1-4.205l.34-.678L9 0l3 6-1.494 3L9 12 7.506 9zm1.498.764L8.4 8.55 7.118 5.998c.694-1.394 1.257-2.518 1.876-3.754L9 2.234l1.883 3.767-1.27 2.55-.608 1.213zM1.004 8L0 6c.533-1.072.944-1.893 1.4-2.803l.04-.08L2 2l2 4-.996 2L2 10l-.996-2zm1-.236l-.106-.213-.78-1.553.881-1.764.883 1.767-.772 1.55-.106.213zm13 .236L14 6c.533-1.072.944-1.893 1.4-2.803l.04-.08L16 2l2 4-.996 2L16 10l-.996-2zm1-.236l-.106-.213-.78-1.553.881-1.764.883 1.767-.772 1.55-.106.213z" fill="#0C0B10"/></svg>