<svg width="52" height="42" fill="none" xmlns="http://www.w3.org/2000/svg"><path d="M7.62 6.673c2.106-1.255 4.564-2.008 7.171-2.008 7.623 0 13.742 6.175 13.742 13.756 0 6.125-4.113 12-7.623 16.618-.702.954-1.354 1.908-2.056 2.712-1.906 2.309-3.01 3.112-4.113 3.112-1.103 0-2.206-.803-4.112-3.112-.652-.804-1.304-1.758-2.056-2.712C5.113 30.42 1 24.546 1 18.471c0-3.815 1.555-7.229 4.012-9.74" stroke="#79655E" stroke-width="2" stroke-miterlimit="10" stroke-linecap="round" stroke-linejoin="round"/><path d="M20.71 18.471a5.953 5.953 0 01-5.969 5.975 5.953 5.953 0 01-5.968-5.975 5.953 5.953 0 015.968-5.974c3.31-.05 5.968 2.66 5.968 5.974zM43.779 1C47.79 1 51 4.263 51 8.23c0 3.213-2.156 6.275-4.012 8.735-.4.502-.702 1.005-1.053 1.406-1.003 1.205-1.605 1.607-2.156 1.607-.552 0-1.154-.402-2.157-1.607-.35-.401-.702-.904-1.053-1.406-1.855-2.46-4.012-5.522-4.012-8.735 0-3.967 3.26-7.23 7.222-7.23z" stroke="#79655E" stroke-width="2" stroke-miterlimit="10" stroke-linecap="round" stroke-linejoin="round"/><path d="M46.938 8.23a3.148 3.148 0 01-3.16 3.162A3.148 3.148 0 0140.62 8.23a3.148 3.148 0 013.16-3.163c1.755.05 3.16 1.456 3.16 3.163z" stroke="#79655E" stroke-width="2" stroke-miterlimit="10" stroke-linecap="round" stroke-linejoin="round"/><path d="M39.165 20.379h-1.253" stroke="#79655E" stroke-width="2" stroke-linecap="round" stroke-linejoin="round"/><path d="M35.404 20.68c-1.856.351-3.711 1.205-3.711 2.962 0 4.267 17.151 2.962 17.302 8.635.05 3.364-3.11 6.878-31.144 8.384" stroke="#79655E" stroke-width="2" stroke-linecap="round" stroke-linejoin="round" stroke-dasharray="5.05 5.05"/><path d="M16.597 40.763c-.401 0-.853.05-1.254.05" stroke="#79655E" stroke-width="2" stroke-linecap="round" stroke-linejoin="round"/></svg>