<svg width="52" height="44" fill="none" xmlns="http://www.w3.org/2000/svg"><path d="M4.875 12.563C5.5 6.375 10.75 1.5 17.125 1.5c4.563 0 8.687 2.562 10.812 6.437C30.062 4.062 34.125 1.5 38.687 1.5 45.437 1.5 51 7 51 13.813c0 14.062-21.563 27.312-22.5 27.874l-.563.375-.562-.375c-.313-.187-2.75-1.687-5.938-4.125M38.688 9.063a4.748 4.748 0 014.75 4.75" stroke="#79655E" stroke-width="2" stroke-miterlimit="10" stroke-linecap="round" stroke-linejoin="round"/><path d="M7.063 25.5l3.812 3.813 6.188-6.25" stroke="#79655E" stroke-width="2" stroke-miterlimit="10" stroke-linecap="round" stroke-linejoin="round"/><path d="M11.75 12.5S5.875 17.063 1 17.063v11.5c0 2.375 1 4.562 2.625 5.75 1.687 1.25 6.813 4.624 7.063 4.75l1.062.687 1.063-.688c.187-.125 5.312-3.5 7.062-4.75 1.625-1.187 2.625-3.374 2.625-5.75V17c-4.938 0-10.75-4.5-10.75-4.5z" stroke="#79655E" stroke-width="2" stroke-miterlimit="10" stroke-linecap="round" stroke-linejoin="round"/></svg>