<svg width="52" height="47" fill="none" xmlns="http://www.w3.org/2000/svg"><path d="M17.188 42.063v-31.75h17.625v9m0 19.125v3.624" stroke="#79655E" stroke-width="2" stroke-miterlimit="10" stroke-linecap="round" stroke-linejoin="round"/><path d="M21.563 14.813h9.187m-9.187 3.312h9.187m-9.187 3.313h9.187m-9.187 3.25h9.187M21.563 28h9.187m-9.187 3.313h9.187" stroke="#79655E" stroke-width="2" stroke-miterlimit="10" stroke-linecap="round" stroke-linejoin="round" stroke-dasharray="0.53 0.53"/><path d="M28.188 42.063v-6.75h-4.375v6.75m-6.625-20.625H5.374v20.625" stroke="#79655E" stroke-width="2" stroke-miterlimit="10" stroke-linecap="round" stroke-linejoin="round"/><path d="M13.625 24.688H8.937M13.625 28H8.937m4.688 3.313H8.937m4.688 3.25H8.937m4.688 3.312H8.937" stroke="#79655E" stroke-width="2" stroke-miterlimit="10" stroke-linecap="round" stroke-linejoin="round" stroke-dasharray="0.53 0.53"/><path d="M1 42.063h50m-26.625 3.812h21.313m-40.625 0H12" stroke="#79655E" stroke-width="2" stroke-miterlimit="10" stroke-linecap="round" stroke-linejoin="round"/><path d="M16.125 45.875h4.75" stroke="#79655E" stroke-width="2" stroke-miterlimit="10" stroke-linecap="round" stroke-linejoin="round" stroke-dasharray="0.6 0.6"/><path d="M20.875 10.313V7.25h9.875v3.063M25.813 7.25V1.5m9.25 25.553l5.288 5.384 8.462-8.75" stroke="#79655E" stroke-width="2" stroke-miterlimit="10" stroke-linecap="round" stroke-linejoin="round"/></svg>